{"title":"National.Lampoon's.Vacation.1983.1080p.Bluray.REMUX.VC-1.DTS-BRD","uid":10820207,"size":18414493133,"categoryP":"video","categoryS":"hd___movies","magnet":"?xt=urn:btih:ecf86acd70fc4493139affd02f781ada5d4caa0a&amp;dn=National.Lampoon%27s.Vacation.1983.1080p.Bluray.REMUX.VC-1.DTS-BRD&amp;tr=udp%3A%2F%2Ftracker.openbittorrent.com%3A80&amp;tr=udp%3A%2F%2Fopen.demonii.com%3A1337&amp;tr=udp%3A%2F%2Ftracker.coppersurfer.tk%3A6969&amp;tr=udp%3A%2F%2Fexodus.desync.com%3A6969","seeders":4,"leechers":2,"uploader":"ataion","files":1,"time":1408519138,"description":" &lt;a href=&quot;http://www.imdb.com/title/tt0085995/&quot; rel=&quot;nofollow&quot; target=&quot;_NEW&quot;&gt;http://www.imdb.com/title/tt0085995/&lt;/a&gt; \n\nNational Lampoon's Vacation, sometimes referred to as Vacation, is a 1983 Technicolor comedy film directed by Harold Ramis and starring Chevy Chase, Beverly D'Angelo, Randy Quaid, Dana Barron, and Anthony Michael Hall. John Candy, Imogene Coca, Christie Brinkley, and Jane Krakowski appear in supporting roles.\n\nThe screenplay was written by John Hughes, based on his short story &quot;Vacation '58&quot; which appeared in National Lampoon. The original story is a fictionalized account of his own family's ill-fated trip to Disneyland when Hughes was a boy. The success of the film helped advance his screenwriting career.\n\nThe film was a box-office hit, earning more than $61 million in the US with an estimated budget of $15 million. In 2000, readers of Total Film voted it the 46th greatest comedy film of all time. It is widely considered to be the best film in the Vacation series, and continues to be a cult film and a staple on cable television. As of August 8, 2014, the film has received a 95% &quot;fresh&quot; rating on Rotten Tomatoes\n\nVideo\nID                                       : 1\nFormat                                   : VC-1\nFormat profile                           : Advanced@L3\nCodec ID                                 : V_MS/VFW/FOURCC / WVC1\nCodec ID/Hint                            : Microsoft\nDuration                                 : 1h 38mn\nWidth                                    : 1 920 pixels\nHeight                                   : 1 080 pixels\nDisplay aspect ratio                     : 16:9\nFrame rate mode                          : Constant\nFrame rate                               : 23.976 fps\nColor space                              : YUV\nChroma subsampling                       : 4:2:0\nBit depth                                : 8 bits\nScan type                                : Progressive\nCompression mode                         : Lossy\nLanguage                                 : English\nDefault                                  : No\nForced                                   : No\n\nAudio #1\nID                                       : 2\nFormat                                   : DTS\nFormat/Info                              : Digital Theater Systems\nFormat profile                           : MA / Core\nMode                                     : 16\nFormat settings, Endianness              : Big\nCodec ID                                 : A_DTS\nDuration                                 : 1h 38mn\nBit rate mode                            : Variable\nBit rate                                 : Unknown / 768 Kbps\nChannel(s)                               : 1 channel\nChannel positions                        : Front: C\nSampling rate                            : 48.0 KHz\nBit depth                                : 24 bits\nCompression mode                         : Lossless / Lossy\nTitle                                    : Mono\nLanguage                                 : English\nDefault                                  : Yes\nForced                                   : No\n\nAudio #2\nID                                       : 3\nFormat                                   : DTS\nFormat/Info                              : Digital Theater Systems\nMode                                     : 16\nFormat settings, Endianness              : Big\nCodec ID                                 : A_DTS\nDuration                                 : 1h 38mn\nBit rate mode                            : Constant\nBit rate                                 : 768 Kbps\nChannel(s)                               : 1 channel\nChannel positions                        : Front: C\nSampling rate                            : 48.0 KHz\nBit depth                                : 24 bits\nCompression mode                         : Lossy\nStream size                              : 540 MiB (3%)\nTitle                                    : Mono\nLanguage                                 : English\nDefault                                  : No\nForced                                   : No\n\nAudio #3\nID                                       : 4\nFormat                                   : AC-3\nFormat/Info                              : Audio Coding 3\nMode extension                           : CM (complete main)\nFormat settings, Endianness              : Big\nCodec ID                                 : A_AC3\nDuration                                 : 1h 38mn\nBit rate mode                            : Constant\nBit rate                                 : 192 Kbps\nChannel(s)                               : 1 channel\nChannel positions                        : Front: C\nSampling rate                            : 48.0 KHz\nBit depth                                : 16 bits\nCompression mode                         : Lossy\nStream size                              : 135 MiB (1%)\nTitle                                    : Mono\nLanguage                                 : French\nDefault                                  : No\nForced                                   : No\n\nAudio #4\nID                                       : 5\nFormat                                   : AC-3\nFormat/Info                              : Audio Coding 3\nMode extension                           : CM (complete main)\nFormat settings, Endianness              : Big\nCodec ID                                 : A_AC3\nDuration                                 : 1h 38mn\nBit rate mode                            : Constant\nBit rate                                 : 192 Kbps\nChannel(s)                               : 1 channel\nChannel positions                        : Front: C\nSampling rate                            : 48.0 KHz\nBit depth                                : 16 bits\nCompression mode                         : Lossy\nStream size                              : 135 MiB (1%)\nTitle                                    : Mono\nLanguage                                 : German\nDefault                                  : No\nForced                                   : No\n\nAudio #5\nID                                       : 6\nFormat                                   : AC-3\nFormat/Info                              : Audio Coding 3\nMode extension                           : CM (complete main)\nFormat settings, Endianness              : Big\nCodec ID                                 : A_AC3\nDuration                                 : 1h 38mn\nBit rate mode                            : Constant\nBit rate                                 : 192 Kbps\nChannel(s)                               : 1 channel\nChannel positions                        : Front: C\nSampling rate                            : 48.0 KHz\nBit depth                                : 16 bits\nCompression mode                         : Lossy\nStream size                              : 135 MiB (1%)\nTitle                                    : Mono\nLanguage                                 : Spanish\nDefault                                  : No\nForced                                   : No\n\nAudio #6\nID                                       : 7\nFormat                                   : AC-3\nFormat/Info                              : Audio Coding 3\nMode extension                           : CM (complete main)\nFormat settings, Endianness              : Big\nCodec ID                                 : A_AC3\nDuration                                 : 1h 38mn\nBit rate mode                            : Constant\nBit rate                                 : 192 Kbps\nChannel(s)                               : 1 channel\nChannel positions                        : Front: C\nSampling rate                            : 48.0 KHz\nBit depth                                : 16 bits\nCompression mode                         : Lossy\nStream size                              : 135 MiB (1%)\nTitle                                    : Mono\nLanguage                                 : English\nDefault                                  : No\nForced                                   : No\n","torrent":{"xt":"urn:btih:ecf86acd70fc4493139affd02f781ada5d4caa0a","amp;dn":"National.Lampoon%27s.Vacation.1983.1080p.Bluray.REMUX.VC-1.DTS-BRD","amp;tr":["udp%3A%2F%2Ftracker.openbittorrent.com%3A80","udp%3A%2F%2Fopen.demonii.com%3A1337","udp%3A%2F%2Ftracker.coppersurfer.tk%3A6969","udp%3A%2F%2Fexodus.desync.com%3A6969"],"infoHash":"ecf86acd70fc4493139affd02f781ada5d4caa0a","infoHashBuffer":{"type":"Buffer","data":[236,248,106,205,112,252,68,147,19,154,255,208,47,120,26,218,93,76,170,10]},"announce":[],"urlList":[]}}